<?xml version="1.0" encoding="utf-8"?>
<!-- Generator: Adobe Illustrator 16.0.0, SVG Export Plug-In . SVG Version: 6.00 Build 0)  -->
<!DOCTYPE svg PUBLIC "-//W3C//DTD SVG 1.1//EN" "http://www.w3.org/Graphics/SVG/1.1/DTD/svg11.dtd">
<svg version="1.1" id="Calque_1" xmlns="http://www.w3.org/2000/svg" xmlns:xlink="http://www.w3.org/1999/xlink" x="0px" y="0px"
	 width="56.69px" height="56.69px" viewBox="0 0 56.69 56.69" enable-background="new 0 0 56.69 56.69" xml:space="preserve">
<circle fill="#006EE3" cx="29.417" cy="29.227" r="23.095"/>
<g>
	<path fill-rule="evenodd" clip-rule="evenodd" fill="#FFFFFF" d="M29.08,42.444c-2.717,0-5.433,0.026-8.148-0.008
		c-2.796-0.036-4.582-1.697-4.615-4.479c-0.067-5.614-0.069-11.228,0.003-16.84c0.034-2.658,1.854-4.373,4.517-4.413
		c3.258-0.048,6.518-0.017,9.777-0.008c1.306,0.003,2.291,0.493,2.293,1.955c0.002,1.516-1.064,1.871-2.343,1.872
		c-2.958,0.003-5.916,0.038-8.873-0.014c-1.167-0.021-1.583,0.385-1.571,1.572c0.049,5.009,0.048,10.019,0,15.029
		c-0.011,1.114,0.395,1.488,1.462,1.483c5.071-0.025,10.141-0.027,15.21,0.007c1.123,0.009,1.461-0.466,1.443-1.523
		c-0.046-2.775-0.007-5.554-0.025-8.329c-0.01-1.4,0.254-2.651,1.978-2.612c1.616,0.038,1.835,1.255,1.827,2.575
		c-0.019,2.957,0.012,5.915-0.014,8.872c-0.026,3.231-1.68,4.849-4.954,4.868c-2.656,0.016-5.313,0.004-7.968,0.004
		C29.08,42.45,29.08,42.447,29.08,42.444z"/>
	<path fill-rule="evenodd" clip-rule="evenodd" fill="#FFFFFF" d="M36.414,19.254c1.134,1.206,2.191,2.33,3.37,3.583
		c-2.752,2.582-5.419,5.083-8.239,7.728c-1.14-1.195-2.238-2.348-3.388-3.554C30.906,24.428,33.613,21.884,36.414,19.254z"/>
	<path fill-rule="evenodd" clip-rule="evenodd" fill="#FFFFFF" d="M36.965,18.509c1.098-0.738,2.33-2.049,2.841-1.811
		c1.15,0.538,2.267,1.712,2.739,2.891c0.216,0.535-1.133,1.696-1.909,2.762C39.365,21.022,38.305,19.912,36.965,18.509z"/>
	<path fill-rule="evenodd" clip-rule="evenodd" fill="#FFFFFF" d="M30.847,31.176c-1.651,0.371-2.977,0.668-4.628,1.037
		c0.46-1.579,0.85-2.911,1.318-4.52C28.68,28.896,29.652,29.919,30.847,31.176z"/>
</g>
</svg>
