<?xml version="1.0" encoding="utf-8"?>
<!-- Generator: Adobe Illustrator 16.0.0, SVG Export Plug-In . SVG Version: 6.00 Build 0)  -->
<!DOCTYPE svg PUBLIC "-//W3C//DTD SVG 1.1//EN" "http://www.w3.org/Graphics/SVG/1.1/DTD/svg11.dtd">
<svg version="1.1" id="Calque_1" xmlns="http://www.w3.org/2000/svg" xmlns:xlink="http://www.w3.org/1999/xlink" x="0px" y="0px"
	 width="56.69px" height="56.69px" viewBox="0 0 56.69 56.69" enable-background="new 0 0 56.69 56.69" xml:space="preserve">
<g>
	<path fill-rule="evenodd" clip-rule="evenodd" fill="#98989A" d="M4.091,14.165c0.05-0.296,0.083-0.596,0.151-0.887
		c0.374-1.59,1.274-2.806,2.663-3.652c1.052-0.642,2.208-0.908,3.432-0.784c1.854,0.187,3.263,1.114,4.253,2.683
		c0.397,0.629,0.646,1.319,0.785,2.068c12.176,0,24.351,0,36.536,0c0,11.486,0,22.954,0,34.443c-0.053,0-0.105,0-0.159,0
		c-13.991,0-27.982,0.001-41.974-0.001c-2.67,0-5.051-1.968-5.566-4.593c-0.047-0.245-0.081-0.493-0.12-0.739
		C4.091,33.189,4.091,23.677,4.091,14.165z M50.006,46.126c0-10.214,0-20.406,0-30.6c-11.48,0-22.953,0-34.44,0
		c0,8.928,0,17.844,0,26.755c-0.024,0.009-0.033,0.016-0.042,0.016c-0.587,0.001-1.175,0-1.763,0.004
		c-0.092,0.001-0.101-0.044-0.11-0.119c-0.034-0.283-0.049-0.571-0.119-0.847c-0.505-1.962-2.389-3.162-4.414-2.792
		c-2.412,0.438-3.793,3.011-2.788,5.283c0.683,1.543,1.938,2.297,3.62,2.298c13.288,0.005,26.577,0.002,39.866,0.002
		C49.874,46.126,49.934,46.126,50.006,46.126z M13.651,37.985c0.002-0.041,0.005-0.085,0.005-0.129
		c0.001-7.748,0-15.496,0.001-23.244c0-0.649-0.131-1.266-0.436-1.839c-1.163-2.198-4.059-2.731-5.925-1.088
		c-0.79,0.696-1.241,1.58-1.274,2.632c-0.037,1.184-0.019,2.37-0.019,3.554c-0.001,6.644,0,13.287,0,19.931c0,0.064,0,0.13,0,0.188
		C8.565,36.066,11.097,36.065,13.651,37.985z"/>
	<path fill-rule="evenodd" clip-rule="evenodd" fill="#98989A" d="M35.162,28.963c1.688-1.689,3.37-3.371,5.058-5.058
		c-0.865-0.865-1.741-1.741-2.643-2.642c2.249,0,4.462,0,6.683,0c0,2.215,0,4.427,0,6.646c-0.885-0.886-1.763-1.764-2.654-2.655
		c-2.155,2.156-4.288,4.288-6.435,6.434c-1.764-1.769-3.525-3.534-5.289-5.304c-2.336,2.041-4.655,4.068-6.986,6.106
		c-0.418-0.477-0.83-0.947-1.255-1.435c2.775-2.43,5.545-4.855,8.32-7.286C31.703,25.509,33.438,27.242,35.162,28.963z"/>
	<path fill-rule="evenodd" clip-rule="evenodd" fill="#98989A" d="M20.364,39.415c0-0.632,0-1.253,0-1.885
		c7.962,0,15.923,0,23.894,0c0,0.625,0,1.249,0,1.885C36.297,39.415,28.34,39.415,20.364,39.415z"/>
</g>
</svg>
