<?xml version="1.0" encoding="utf-8"?>
<!-- Generator: Adobe Illustrator 16.0.0, SVG Export Plug-In . SVG Version: 6.00 Build 0)  -->
<!DOCTYPE svg PUBLIC "-//W3C//DTD SVG 1.1//EN" "http://www.w3.org/Graphics/SVG/1.1/DTD/svg11.dtd">
<svg version="1.1" id="Calque_1" xmlns="http://www.w3.org/2000/svg" xmlns:xlink="http://www.w3.org/1999/xlink" x="0px" y="0px"
	 width="56.69px" height="56.69px" viewBox="0 0 56.69 56.69" enable-background="new 0 0 56.69 56.69" xml:space="preserve">
<circle fill="#87888A" cx="29.417" cy="29.227" r="23.095"/>
<g>
	<path fill-rule="evenodd" clip-rule="evenodd" fill="#FFFFFF" d="M19.666,44.676c0-2.818,0-5.523,0-8.404
		c-0.934,0-1.808,0.01-2.681-0.004c-2.71-0.037-4.553-1.783-4.599-4.496c-0.056-3.293-0.048-6.587,0.005-9.88
		c0.038-2.353,1.641-3.813,4.169-3.906c0.996-0.037,1.994-0.006,3.085-0.006c0-1.664,0-3.199,0-4.823c6.538,0,12.978,0,19.515,0
		c0,1.576,0,3.111,0,4.817c0.969,0,1.843-0.005,2.718,0c3.011,0.021,4.584,1.583,4.596,4.586c0.014,3.062,0.017,6.123,0.007,9.185
		c-0.009,2.684-1.699,4.426-4.388,4.52c-0.922,0.033-1.846,0.006-2.874,0.006c0,2.826,0,5.561,0,8.406
		C32.678,44.676,26.242,44.676,19.666,44.676z M37.98,30.217c-5.764,0-11.425,0-17.078,0c0,4.5,0,8.898,0,13.316
		c5.728,0,11.385,0,17.078,0C37.98,39.061,37.98,34.693,37.98,30.217z M37.982,14.345c-5.781,0-11.439,0-17.072,0
		c0,1.245,0,2.388,0,3.525c5.737,0,11.395,0,17.072,0C37.982,16.652,37.982,15.538,37.982,14.345z M41.722,22.743
		c-0.035-0.412-0.063-0.765-0.098-1.183c-0.487,0.024-0.853,0.042-1.205,0.06C40.063,22.845,40.595,23.034,41.722,22.743z"/>
	<path fill-rule="evenodd" clip-rule="evenodd" fill="#FFFFFF" d="M36.622,32.656c0,0.445,0,0.736,0,1.08c-4.803,0-9.546,0-14.387,0
		c-0.061-0.535-0.321-1.084,0.61-1.084C27.402,32.658,31.958,32.656,36.622,32.656z"/>
	<path fill-rule="evenodd" clip-rule="evenodd" fill="#FFFFFF" d="M22.157,36.367c4.927,0,9.668,0,14.442,0
		c0.112,0.584,0.316,1.113-0.601,1.113c-4.554-0.014-9.106-0.006-13.75-0.006C22.216,37.09,22.19,36.77,22.157,36.367z"/>
	<path fill-rule="evenodd" clip-rule="evenodd" fill="#FFFFFF" d="M22.249,40.055c4.81,0,9.559,0,14.344,0
		c0.246,0.826,0.028,1.129-0.844,1.121c-4.222-0.033-8.443-0.031-12.664,0C22.294,41.182,22,40.936,22.249,40.055z"/>
</g>
</svg>
