<?xml version="1.0" encoding="utf-8"?>
<!-- Generator: Adobe Illustrator 16.0.0, SVG Export Plug-In . SVG Version: 6.00 Build 0)  -->
<!DOCTYPE svg PUBLIC "-//W3C//DTD SVG 1.1//EN" "http://www.w3.org/Graphics/SVG/1.1/DTD/svg11.dtd">
<svg version="1.1" id="Calque_1" xmlns="http://www.w3.org/2000/svg" xmlns:xlink="http://www.w3.org/1999/xlink" x="0px" y="0px"
	 width="56.69px" height="56.69px" viewBox="0 0 56.69 56.69" enable-background="new 0 0 56.69 56.69" xml:space="preserve">
<circle fill="#36C265" cx="28.598" cy="29.227" r="23.095"/>
<g>
	<path fill="#FFFFFF" d="M43.019,39.919l-7.045-7.043c-1.049,1.631-2.437,3.02-4.068,4.069l7.043,7.043
		c1.125,1.124,2.948,1.124,4.07,0C44.142,42.866,44.142,41.042,43.019,39.919z"/>
	<path fill="#FFFFFF" d="M36.186,25.645c0-6.359-5.154-11.513-11.512-11.513c-6.357,0-11.512,5.154-11.512,11.513
		c0,6.357,5.155,11.512,11.512,11.512C31.031,37.157,36.186,32.002,36.186,25.645z M24.673,34.278c-4.761,0-8.634-3.873-8.634-8.633
		c0-4.761,3.873-8.635,8.634-8.635c4.761,0,8.634,3.874,8.634,8.635C33.308,30.405,29.435,34.278,24.673,34.278z"/>
	<path fill="#FFFFFF" d="M17.958,25.645h1.918c0-2.645,2.152-4.797,4.796-4.797v-1.918C20.972,18.929,17.958,21.941,17.958,25.645z"
		/>
</g>
</svg>
